Coordinates
version=1
nRows=35
nColumns=18
inDegrees=yes

Units are S.I. units (second, meters, Newtons, ...)
If the header above contains a line with 'inDegrees', this indicates whether rotational values are in degrees (yes) or radians (no).

endheader
time	TH_y	TH_x	TH_z	TH_x_trans	TH_y_trans	TH_z_trans	SC_y	SC_z	SC_x	AC_y	AC_z	AC_x	GH_y	GH_z	GH_yy	EL_x	PS_y
     44.34000000	   -146.62880877	     -2.21509286	      0.58929703	      0.02177244	      1.47631844	      0.02979766	    -25.66947650	      3.52775047	      4.62709624	     73.75892748	      6.83315857	     -5.58256883	     10.30819645	     11.16422603	      6.03806355	    103.04250616	     86.90897794
     44.35000000	   -146.64985008	     -2.22678227	      0.57671201	      0.02177256	      1.47625373	      0.02971027	    -25.64755539	      3.53461756	      4.64911179	     73.78069667	      6.86114295	     -5.61463398	     10.33545722	     11.19170558	      6.06717653	    103.08413032	     86.90259696
     44.36000000	   -146.65131831	     -2.22841506	      0.57677096	      0.02163449	      1.47628563	      0.02968603	    -25.64834943	      3.53504241	      4.64855658	     73.78079164	      6.86087642	     -5.61610857	     10.33573511	     11.19138055	      6.06758436	    103.08522389	     86.90237933
     44.37000000	   -146.65362591	     -2.23128632	      0.57535070	      0.02155740	      1.47628905	      0.02968047	    -25.64804699	      3.53469241	      4.64785065	     73.78329975	      6.86052999	     -5.61854384	     10.33847046	     11.19136728	      6.07036262	    103.08848984	     86.90190203
     44.38000000	   -146.66155183	     -2.24755978	      0.57310185	      0.02150259	      1.47628403	      0.02975984	    -25.63692699	      3.53624636	      4.65123711	     73.80643435	      6.86678351	     -5.63418582	     10.36274829	     11.20008962	      6.09502936	    103.11075158	     86.89923297
     44.39000000	   -146.66272754	     -2.24873398	      0.57365921	      0.02141164	      1.47628633	      0.02969018	    -25.63730255	      3.53677433	      4.65153244	     73.80677132	      6.86734906	     -5.63543641	     10.36316799	     11.20062049	      6.09557639	    103.11158031	     86.89904541
     44.40000000	   -146.67315994	     -2.26499202	      0.57810545	      0.02137194	      1.47623667	      0.02961751	    -25.62328651	      3.53430594	      4.67254523	     73.83024465	      6.89093995	     -5.65272305	     10.38691541	     11.22673469	      6.11980031	    103.12954941	     86.89413664
     44.41000000	   -146.67608439	     -2.26845805	      0.57633034	      0.02130032	      1.47625091	      0.02962204	    -25.62436155	      3.53209294	      4.67206496	     73.83170774	      6.89045738	     -5.65445906	     10.38831976	     11.22669153	      6.12115504	    103.13051343	     86.89346089
     44.42000000	   -146.67742815	     -2.27244003	      0.57561236	      0.02122912	      1.47625914	      0.02961322	    -25.62380616	      3.53048321	      4.67282535	     73.83410005	      6.89135559	     -5.65657767	     10.39067725	     11.22797529	      6.12356186	    103.13072499	     86.89287068
     44.43000000	   -146.68848447	     -2.31883540	      0.56678998	      0.02116356	      1.47628180	      0.02962609	    -25.60718491	      3.50494667	      4.69949888	     73.86342369	      6.91826713	     -5.67858731	     10.41879961	     11.25944551	      6.15194540	    103.12359098	     86.88449241
     44.44000000	   -146.69272606	     -2.32106800	      0.56634289	      0.02109819	      1.47629306	      0.02960586	    -25.60920679	      3.50271682	      4.70181950	     73.86261824	      6.92045961	     -5.67966077	     10.41781201	     11.26177488	      6.15092499	    103.12331579	     86.88337149
     44.45000000	   -146.69327422	     -2.32194441	      0.56645656	      0.02105376	      1.47630613	      0.02958648	    -25.60940892	      3.50254676	      4.70222232	     73.86261858	      6.92090781	     -5.68009810	     10.41781082	     11.26221892	      6.15096136	    103.12318559	     86.88320309
     44.46000000	   -146.69365888	     -2.32292180	      0.56648264	      0.02101045	      1.47632379	      0.02956468	    -25.60937648	      3.50225448	      4.70289174	     73.86264736	      6.92159833	     -5.68049423	     10.41783755	     11.26290024	      6.15102109	    103.12291059	     86.88302971
     44.47000000	   -146.85325256	     -2.48826723	      0.51832412	      0.02085855	      1.47630806	      0.02979355	    -25.62015909	      3.37627171	      4.81626869	     73.93642074	      7.02272684	     -5.70090203	     10.47507502	     11.39070376	      6.19784792	    103.12096159	     86.81964788
     44.48000000	   -146.85319629	     -2.48861577	      0.51852586	      0.02082872	      1.47632830	      0.02976915	    -25.62010486	      3.37644683	      4.81635086	     73.93657637	      7.02287762	     -5.70118987	     10.47527597	     11.39084881	      6.19806925	    103.12078031	     86.81946299
     44.49000000	   -146.85308210	     -2.48893788	      0.51846510	      0.02080304	      1.47634801	      0.02973885	    -25.61986744	      3.37636125	      4.81670705	     73.93670698	      7.02324600	     -5.70134855	     10.47544014	     11.39121981	      6.19823077	    103.12050296	     86.81926963
     44.50000000	   -146.85294522	     -2.48919923	      0.51812012	      0.02078042	      1.47636515	      0.02970355	    -25.61947930	      3.37600407	      4.81730093	     73.93680679	      7.02379541	     -5.70138510	     10.47556192	     11.39178236	      6.19832632	    103.12014856	     86.81906978
     44.51000000	   -146.85282268	     -2.48935107	      0.51746643	      0.02076114	      1.47637783	      0.02966397	    -25.61897409	      3.37535379	      4.81810243	     73.93687171	      7.02449129	     -5.70128707	     10.47563350	     11.39250731	      6.19834462	    103.11973649	     86.81886476
     44.52000000	   -146.88410218	     -2.53103883	      0.44786775	      0.02059278	      1.47653250	      0.02956683	    -25.58986839	      3.32718124	      4.86734238	     73.94061707	      7.07309711	     -5.74235704	     10.48656656	     11.43911047	      6.21084611	    103.06564489	     86.79453815
     44.53000000	   -146.88466880	     -2.53102607	      0.44747377	      0.02058334	      1.47652715	      0.02953421	    -25.58996894	      3.32685621	      4.86740160	     73.94086798	      7.07306483	     -5.74199437	     10.48675039	     11.43921683	      6.21092325	    103.06601673	     86.79434455
     44.54000000	   -146.88535055	     -2.53070071	      0.44666685	      0.02057379	      1.47651010	      0.02949745	    -25.59010811	      3.32610998	      4.86756933	     73.94102627	      7.07305194	     -5.74142114	     10.48680678	     11.43937874	      6.21082920	    103.06631341	     86.79414404
     44.55000000	   -146.91039690	     -2.51215069	      0.42591650	      0.02041940	      1.47653469	      0.02941040	    -25.59644077	      3.30563098	      4.87920244	     73.93919041	      7.07972184	     -5.72612029	     10.48251577	     11.44984151	      6.20252062	    103.07025212	     86.78712181
     44.56000000	   -146.91602064	     -2.51068632	      0.42285221	      0.02039952	      1.47645315	      0.02941915	    -25.59880008	      3.30371867	      4.87910720	     73.93892558	      7.07952258	     -5.72701278	     10.48219128	     11.44993082	      6.20206148	    103.06873015	     86.78601048
     44.57000000	   -146.91902432	     -2.50894116	      0.42000940	      0.02039833	      1.47639662	      0.02937946	    -25.60054415	      3.30126019	      4.87901814	     73.93824327	      7.07899451	     -5.72623905	     10.48127759	     11.44971327	      6.20087795	    103.06776525	     86.78549018
     44.58000000	   -146.95988097	     -2.47753141	      0.38701018	      0.02022521	      1.47640540	      0.02935221	    -25.62965166	      3.26886403	      4.88240361	     73.91967726	      7.07587770	     -5.71182820	     10.45927037	     11.44970422	      6.17511703	    103.05028893	     86.77823142
     44.59000000	   -147.00596409	     -2.43659090	      0.35993114	      0.02007263	      1.47651545	      0.02940873	    -25.66370538	      3.24702058	      4.87972405	     73.91646792	      7.07015939	     -5.70895842	     10.45205730	     11.44915953	      6.16502706	    102.99396900	     86.76635552
     44.60000000	   -147.02491779	     -2.41387042	      0.34462687	      0.01994027	      1.47638979	      0.02940839	    -25.68388555	      3.22925797	      4.88294942	     73.90244056	      7.06912432	     -5.69650175	     10.43564717	     11.44997523	      6.14589378	    102.97383174	     86.76057602
     44.61000000	   -147.05853144	     -2.38610822	      0.31640475	      0.01986755	      1.47643958	      0.02933306	    -25.72781816	      3.19965144	      4.87702167	     73.87405307	      7.05678429	     -5.68039239	     10.40358960	     11.44006778	      6.11016396	    102.92817602	     86.75061999
     44.62000000	   -147.08403178	     -2.35497866	      0.29093848	      0.01969159	      1.47643651	      0.02941397	    -25.77343789	      3.16839899	      4.87499291	     73.83813918	      7.04735779	     -5.65999466	     10.36401500	     11.43217455	      6.06661751	    102.87339632	     86.73953251
     44.63000000	   -147.11013132	     -2.32644254	      0.26103285	      0.01954594	      1.47642798	      0.02944186	    -25.82880587	      3.13166508	      4.87042035	     73.79066465	      7.03405389	     -5.63647572	     10.31284788	     11.41959392	      6.01116671	    102.80762010	     86.72649599
     44.64000000	   -147.04405519	     -2.28824790	      0.25721821	      0.01936169	      1.47648214	      0.02933881	    -25.92274623	      3.10986192	      4.84257840	     73.73179903	      6.99269287	     -5.56680100	     10.24567222	     11.38478854	      5.93191814	    102.57118783	     86.68314954
     44.65000000	   -147.09402301	     -2.26150353	      0.21867369	      0.01922262	      1.47642949	      0.02938948	    -25.99348590	      3.07063138	      4.84186632	     73.66228883	      6.98136576	     -5.53494032	     10.17334093	     11.37239625	      5.85401275	    102.54826428	     86.66768770
     44.66000000	   -147.03099382	     -2.27033014	      0.18437177	      0.01909518	      1.47643492	      0.02935317	    -26.08962849	      3.03643152	      4.82257269	     73.54983608	      6.94572930	     -5.46554450	     10.06291467	     11.33342025	      5.73131804	    102.36246940	     86.61377607
     44.67000000	   -147.09493295	     -2.24255510	      0.13802932	      0.01895229	      1.47640995	      0.02938832	    -26.17399332	      2.98757700	      4.82488999	     73.45601780	      6.93583868	     -5.43461854	      9.96790375	     11.31935070	      5.63111413	    102.32890004	     86.59473606
     44.68000000	   -147.02295157	     -2.27821207	      0.09341800	      0.01881982	      1.47645448	      0.02935242	    -26.26218632	      2.93357290	      4.80744803	     73.29760110	      6.89738750	     -5.36105517	      9.82080406	     11.26888794	      5.47134109	    102.10855739	     86.53039993
